                                                                        S      1
,,16HTriggerOffset v4,13HTriggerOffset,7Hunknown,7Hunknown,32,38,7,99,  G      1
15,,1.,2,2HMM,1,0.08,15H20230917.211740,0.01,10000.,7Hunknown,7Hunknown,G      2
11,0,15H20230917.191524;                                                G      3
     186       1                                                00000000D      1
     186            -163       1       0                               0D      2
     514       2                                                00010000D      3
     514                       2       1                               0D      4
     510       4                                                00010000D      5
     510            -163       1       1                               0D      6
     510       5                                                00010000D      7
     510            -163       1       1                               0D      8
     510       6                                                00010000D      9
     510            -163       1       1                               0D     10
     510       7                                                00010000D     11
     510            -163       1       1                               0D     12
     510       8                                                00010000D     13
     510            -163       1       1                               0D     14
     510       9                                                00010000D     15
     510            -163       1       1                               0D     16
     510      10                                                00010000D     17
     510            -163       1       1                               0D     18
     510      11                                                00010000D     19
     510            -163       1       1                               0D     20
     510      12                                                00010000D     21
     510            -163       1       1                               0D     22
     510      13                                                00010000D     23
     510            -163       1       1                               0D     24
     510      14                                                00010000D     25
     510            -163       1       1                               0D     26
     510      15                                                00010000D     27
     510            -163       1       1                               0D     28
     510      16                                                00010000D     29
     510            -163       1       1                               0D     30
     510      17                                                00010000D     31
     510            -163       1       1                               0D     32
     510      18                                                00010000D     33
     510            -163       1       1                               0D     34
     508      19                                                00010000D     35
     508                       1       1                               0D     36
     508      20                                                00010000D     37
     508                       1       1                               0D     38
     508      21                                                00010000D     39
     508                       1       1                               0D     40
     508      22                                                00010000D     41
     508                       1       1                               0D     42
     508      23                                                00010000D     43
     508                       1       1                               0D     44
     508      24                                                00010000D     45
     508                       1       1                               0D     46
     508      25                                                00010000D     47
     508                       2       1                               0D     48
     508      27                                                00010000D     49
     508                       1       1                               0D     50
     508      28                                                00010000D     51
     508                       1       1                               0D     52
     508      29                                                00010000D     53
     508                       1       1                               0D     54
     508      30                                                00010000D     55
     508                       1       1                               0D     56
     508      31                                                00010000D     57
     508                       1       1                               0D     58
     508      32                                                00010000D     59
     508                       1       1                               0D     60
     508      33                                                00010000D     61
     508                       2       1                               0D     62
     508      35                                                00010000D     63
     508                       1       1                               0D     64
     126      36                                                00010000D     65
     126       0               2       0                               0D     66
     126      38                                                00010000D     67
     126       0               2       0                               0D     68
     126      40                                                00010000D     69
     126       0               2       0                               0D     70
     126      42                                                00010000D     71
     126       0               2       0                               0D     72
     126      44                                                00010000D     73
     126       0               3       0                               0D     74
     126      47                                                00010000D     75
     126       0               2       0                               0D     76
     126      49                                                00010000D     77
     126       0               2       0                               0D     78
     126      51                                                00010000D     79
     126       0               3       0                               0D     80
     126      54                                                00010000D     81
     126       0               2       0                               0D     82
     126      56                                                00010000D     83
     126       0               2       0                               0D     84
     126      58                                                00010000D     85
     126       0               2       0                               0D     86
     126      60                                                00010000D     87
     126       0               2       0                               0D     88
     126      62                                                00010000D     89
     126       0               6       0                               0D     90
     126      68                                                00010000D     91
     126       0               7       0                               0D     92
     126      75                                                00010000D     93
     126       0               2       0                               0D     94
     126      77                                                00010000D     95
     126       0               2       0                               0D     96
     126      79                                                00010000D     97
     126       0               2       0                               0D     98
     126      81                                                00010000D     99
     126       0               5       0                               0D    100
     126      86                                                00010000D    101
     126       0               6       0                               0D    102
     126      92                                                00010000D    103
     126       0               2       0                               0D    104
     126      94                                                00010000D    105
     126       0               2       0                               0D    106
     126      96                                                00010000D    107
     126       0               2       0                               0D    108
     126      98                                                00010000D    109
     126       0               2       0                               0D    110
     126     100                                                00010000D    111
     126       0               2       0                               0D    112
     126     102                                                00010000D    113
     126       0               2       0                               0D    114
     126     104                                                00010000D    115
     126       0               2       0                               0D    116
     126     106                                                00010000D    117
     126       0               2       0                               0D    118
     126     108                                                00010000D    119
     126       0               2       0                               0D    120
     126     110                                                00010000D    121
     126       0               5       0                               0D    122
     126     115                                                00010000D    123
     126       0              11       0                               0D    124
     126     126                                                00010000D    125
     126       0               3       0                               0D    126
     128     129                                                00010000D    127
     128       0    -163       3       0                               0D    128
     128     132                                                00010000D    129
     128       0    -163       4       0                               0D    130
     128     136                                                00010000D    131
     128       0    -163       4       0                               0D    132
     128     140                                                00010000D    133
     128       0    -163       3       0                               0D    134
     128     143                                                00010000D    135
     128       0    -163       3       0                               0D    136
     128     146                                                00010000D    137
     128       0    -163       5       0                               0D    138
     128     151                                                00010000D    139
     128       0    -163       5       0                               0D    140
     128     156                                                00010000D    141
     128       0    -163       3       0                               0D    142
     128     159                                                00010000D    143
     128       0    -163       3       0                               0D    144
     128     162                                                00010000D    145
     128       0    -163       3       0                               0D    146
     128     165                                                00010000D    147
     128       0    -163       3       0                               0D    148
     128     168                                                00010000D    149
     128       0    -163       3       0                               0D    150
     128     171                                                00010000D    151
     128       0    -163       4       0                               0D    152
     128     175                                                00010000D    153
     128       0    -163      18       0                               0D    154
     128     193                                                00010000D    155
     128       0    -163       7       0                               0D    156
     502     200                                                00010000D    157
     502                       5       1                               0D    158
     504     205                                                00010001D    159
     504                       9       1                               0D    160
     406     214                                                00000000D    161
     406                       1      15                               0D    162
     314     215                                                00000200D    163
     314                       2       0                               0D    164
     314     217                                                00000200D    165
     314                       2       0                               0D    166
186,3,1,0,0,1,161;                                                     1P      1
514,15,5,1,7,1,9,1,11,1,13,1,15,1,17,1,19,1,21,1,23,1,25,1,27,1,       3P      2
29,1,31,1,33,1;                                                        3P      3
510,127,1,1,35;                                                        5P      4
510,129,1,1,37;                                                        7P      5
510,131,1,1,39;                                                        9P      6
510,133,1,1,41;                                                       11P      7
510,135,1,1,43;                                                       13P      8
510,137,1,1,45;                                                       15P      9
510,139,1,1,47;                                                       17P     10
510,141,1,1,49;                                                       19P     11
510,143,1,1,51;                                                       21P     12
510,145,1,1,53;                                                       23P     13
510,147,1,1,55;                                                       25P     14
510,149,1,1,57;                                                       27P     15
510,151,1,1,59;                                                       29P     16
510,153,1,1,61;                                                       31P     17
510,155,1,1,63;                                                       33P     18
508,4,0,159,1,0,0,0,159,2,1,0,0,159,3,0,0,0,159,4,0,0;                35P     19
508,4,0,159,5,0,0,0,159,4,1,0,0,159,6,0,0,0,159,7,0,0;                37P     20
508,4,0,159,8,0,0,0,159,7,1,0,0,159,9,0,0,0,159,10,0,0;               39P     21
508,4,0,159,11,0,0,0,159,10,1,0,0,159,12,0,0,0,159,2,0,0;             41P     22
508,4,0,159,12,1,0,0,159,9,1,0,0,159,6,1,0,0,159,3,1,0;               43P     23
508,2,0,159,5,1,0,0,159,13,0,0;                                       45P     24
508,9,0,159,8,1,0,0,159,11,1,0,0,159,1,1,0,0,159,14,0,0,0,159,        47P     25
15,1,0,0,159,16,1,0,0,159,17,1,0,0,159,18,0,0,0,159,19,0,0;           47P     26
508,4,0,159,16,0,0,0,159,20,1,0,0,159,21,0,0,0,159,22,0,0;            49P     27
508,4,0,159,17,0,0,0,159,22,1,0,0,159,23,0,0,0,159,24,0,0;            51P     28
508,4,0,159,25,0,0,0,159,24,1,0,0,159,26,0,0,0,159,27,0,0;            53P     29
508,4,0,159,15,0,0,0,159,27,1,0,0,159,28,0,0,0,159,20,0,0;            55P     30
508,4,0,159,28,1,0,0,159,26,1,0,0,159,23,1,0,0,159,21,1,0;            57P     31
508,2,0,159,25,1,0,0,159,29,0,0;                                      59P     32
508,8,0,159,30,0,0,0,159,31,1,0,0,159,18,1,0,0,159,29,1,0,0,159,      61P     33
14,1,0,0,159,13,1,0,0,159,19,1,0,0,159,31,0,0;                        61P     34
508,1,0,159,30,1,0;                                                   63P     35
126,1,1,0,0,1,0,-0.0625,-0.0625,0.1375,0.1375,1.,1.,2.,0.,2.,2.,      65P     36
0.,0.,-0.0625,0.1375,0.,0.,0.;                                        65P     37
126,1,1,0,0,1,0,0.,0.,0.2,0.2,1.,1.,2.,0.,2.,2.,-2.,2.,0.,0.2,        67P     38
0.,0.,0.;                                                             67P     39
126,1,1,0,0,1,0,0.,0.,0.2,0.2,1.,1.,2.,-2.,1.15555796663234D-32,      69P     40
2.,-2.,2.,0.,0.2,0.,0.,0.;                                            69P     41
126,1,1,0,0,1,0,0.,0.,0.2,0.2,1.,1.,2.,0.,1.15555796663234D-32,       71P     42
2.,-2.,1.15555796663234D-32,0.,0.2,0.,0.,0.;                          71P     43
126,1,1,0,0,1,0,-0.15,-0.15,0.05,0.05,1.,1.,2.,0.,                    73P     44
8.66668474974256D-33,0.,0.,-2.88889491658085D-33,-0.15,0.05,0.,       73P     45
0.,0.;                                                                73P     46
126,1,1,0,0,1,0,0.,0.,0.2,0.2,1.,1.,0.,-2.,0.,2.,-2.,                 75P     47
1.15555796663234D-32,0.,0.2,0.,0.,0.;                                 75P     48
126,1,1,0,0,1,0,0.,0.,0.2,0.2,1.,1.,0.,0.,0.,0.,-2.,0.,0.,0.2,        77P     49
0.,0.,0.;                                                             77P     50
126,1,1,0,0,1,0,-0.2375,-0.2375,-0.0375,-0.0375,1.,1.,                79P     51
1.37222508537591D-32,0.,0.,2.16667118743564D-33,0.,2.,-0.2375,        79P     52
-0.0375,0.,0.,0.;                                                     79P     53
126,1,1,0,0,1,0,0.,0.,0.2,0.2,1.,1.,-1.15555796663234D-32,-2.,        81P     54
2.,0.,-2.,0.,0.,0.2,0.,0.,0.;                                         81P     55
126,1,1,0,0,1,0,0.,0.,0.2,0.2,1.,1.,-1.15555796663234D-32,0.,2.,      83P     56
-1.15555796663234D-32,-2.,2.,0.,0.2,0.,0.,0.;                         83P     57
126,1,1,0,0,1,0,-0.15,-0.15,0.05,0.05,1.,1.,0.,0.,2.,2.,0.,2.,        85P     58
-0.15,0.05,0.,0.,0.;                                                  85P     59
126,1,1,0,0,1,0,0.,0.,0.2,0.2,1.,1.,2.,-2.,2.,0.,-2.,2.,0.,0.2,       87P     60
0.,0.,0.;                                                             87P     61
126,2,2,0,0,0,0,-5.0611599839686,-5.0611599839686,                    89P     62
-5.0611599839686,-4.36361797680078,-4.36361797680078,                 89P     63
-4.36361797680078,1.,0.939793423488438,1.,2.,0.,0.,                   89P     64
0.999999999999997,0.,-0.363636363636363,-2.08166817117217D-15,        89P     65
0.,1.11022302462516D-15,-5.0611599839686,-4.36361797680078,0.,        89P     66
0.,0.;                                                                89P     67
126,4,2,0,0,0,0,-7.50521063039058,-7.50521063039058,                  91P     68
-7.50521063039058,-6.28318530717959,-6.28318530717959,                91P     69
-5.0611599839686,-5.0611599839686,-5.0611599839686,1.,                91P     70
0.819067476795014,1.,0.819067476795014,1.,2.,0.,5.5,                  91P     71
3.92617497767991,0.,4.79957273538913,3.92617497767991,0.,2.75,        91P     72
3.92617497767991,0.,0.700427264610874,2.,0.,0.,                       91P     73
-7.50521063039058,-5.0611599839686,0.,0.,0.;                          91P     74
126,1,1,0,0,1,0,-0.2375,-0.2375,-0.0375,-0.0375,1.,1.,2.,0.,5.5,      93P     75
2.,0.,3.5,-0.2375,-0.0375,0.,0.,0.;                                   93P     76
126,1,1,0,0,1,0,-0.15,-0.15,0.05,0.05,1.,1.,2.,0.,3.5,0.,0.,3.5,      95P     77
-0.15,0.05,0.,0.,0.;                                                  95P     78
126,1,1,0,0,1,0,-0.0625,-0.0625,0.1375,0.1375,1.,1.,0.,0.,3.5,        97P     79
0.,0.,5.5,-0.0625,0.1375,0.,0.,0.;                                    97P     80
126,2,2,0,0,0,0,-3.14159265358979,-3.14159265358979,                  99P     81
-3.14159265358979,-1.9195673303788,-1.9195673303788,                  99P     82
-1.9195673303788,1.,0.819067476795014,1.,-1.92617497767991,0.,        99P     83
2.75,-1.92617497767991,0.,4.79957273538913,5.55111512312578D-16,      99P     84
0.,5.5,-3.14159265358979,-1.9195673303788,0.,0.,0.;                   99P     85
126,2,2,0,0,0,0,-4.36361797680078,-4.36361797680078,                 101P     86
-4.36361797680078,-3.14159265358979,-3.14159265358979,               101P     87
-3.14159265358979,1.,0.819067476795015,1.,-2.08166817117217D-15,     101P     88
0.,1.11022302462516D-15,-1.92617497767991,0.,0.700427264610877,      101P     89
-1.92617497767991,0.,2.75,-4.36361797680078,-3.14159265358979,       101P     90
0.,0.,0.;                                                            101P     91
126,1,1,0,0,1,0,0.,0.,0.2,0.2,1.,1.,2.,0.,3.5,2.,-2.,3.5,0.,0.2,     103P     92
0.,0.,0.;                                                            103P     93
126,1,1,0,0,1,0,-0.2,-0.2,0.,0.,1.,1.,0.,-2.,3.5,2.,-2.,3.5,         105P     94
-0.2,0.,0.,0.,0.;                                                    105P     95
126,1,1,0,0,1,0,0.,0.,0.2,0.2,1.,1.,0.,0.,3.5,0.,-2.,3.5,0.,0.2,     107P     96
0.,0.,0.;                                                            107P     97
126,1,1,0,0,1,0,-0.2,-0.2,0.,0.,1.,1.,0.,-2.,5.5,0.,-2.,3.5,         109P     98
-0.2,0.,0.,0.,0.;                                                    109P     99
126,1,1,0,0,1,0,0.,0.,0.2,0.2,1.,1.,0.,0.,5.5,0.,-2.,5.5,0.,0.2,     111P    100
0.,0.,0.;                                                            111P    101
126,1,1,0,0,1,0,-0.15,-0.15,0.05,0.05,1.,1.,0.,0.,5.5,2.,0.,5.5,     113P    102
-0.15,0.05,0.,0.,0.;                                                 113P    103
126,1,1,0,0,1,0,-0.2,-0.2,0.,0.,1.,1.,2.,-2.,5.5,0.,-2.,5.5,         115P    104
-0.2,0.,0.,0.,0.;                                                    115P    105
126,1,1,0,0,1,0,0.,0.,0.2,0.2,1.,1.,2.,0.,5.5,2.,-2.,5.5,0.,0.2,     117P    106
0.,0.,0.;                                                            117P    107
126,1,1,0,0,1,0,-0.2,-0.2,0.,0.,1.,1.,2.,-2.,3.5,2.,-2.,5.5,         119P    108
-0.2,0.,0.,0.,0.;                                                    119P    109
126,2,2,0,0,0,0,-1.9195673303788,-1.9195673303788,                   121P    110
-1.9195673303788,-1.22202532321099,-1.22202532321099,                121P    111
-1.22202532321099,1.,0.939793423488433,1.,5.55111512312578D-16,      121P    112
0.,5.5,1.,0.,5.86363636363636,2.,0.,5.5,-1.9195673303788,            121P    113
-1.22202532321099,0.,0.,0.;                                          121P    114
126,8,2,0,1,0,0,-3.14159265358979,-3.14159265358979,                 123P    115
-3.14159265358979,-1.5707963267949,-1.5707963267949,0.,0.,           123P    116
1.5707963267949,1.5707963267949,3.14159265358979,                    123P    117
3.14159265358979,3.14159265358979,1.,0.707106781186547,1.,           123P    118
0.707106781186547,1.,0.707106781186548,1.,0.707106781186547,1.,      123P    119
-1.92617497767991,1.,2.75,-1.92617497767991,1.,5.67617497767991,     123P    120
1.,1.,5.67617497767991,3.92617497767991,1.,5.67617497767991,         123P    121
3.92617497767991,1.,2.75,3.92617497767991,1.,-0.176174977679906,     123P    122
1.,1.,-0.176174977679906,-1.92617497767991,1.,                       123P    123
-0.176174977679906,-1.92617497767991,1.,2.75,-3.14159265358979,      123P    124
3.14159265358979,0.,0.,0.;                                           123P    125
126,1,1,0,0,1,0,-0.341743063086704,-0.341743063086704,0.,0.,1.,      125P    126
1.,-1.92617497767991,1.,2.75,-1.92617497767991,0.,2.75,              125P    127
-0.341743063086704,0.,0.,0.,0.;                                      125P    128
128,1,1,1,1,0,0,1,0,0,-0.001,-0.001,0.201,0.201,-0.001,-0.001,       127P    129
0.201,0.201,1.,1.,1.,1.,2.,0.01,-0.01,2.,0.01,2.01,2.,-2.01,         127P    130
-0.01,2.,-2.01,2.01,-0.001,0.201,-0.001,0.201;                       127P    131
128,1,1,1,1,0,0,1,0,0,-0.001,-0.001,0.201,0.201,-0.001,-0.001,       129P    132
0.201,0.201,1.,1.,1.,1.,-0.01,0.01,-5.77778983316171D-35,2.01,       129P    133
0.01,1.1613357564655D-32,-0.01,-2.01,-5.77778983316171D-35,2.01,     129P    134
-2.01,1.1613357564655D-32,-0.001,0.201,-0.001,0.201;                 129P    135
128,1,1,1,1,0,0,1,0,0,-0.001,-0.001,0.201,0.201,-0.001,-0.001,       131P    136
0.201,0.201,1.,1.,1.,1.,-1.1613357564655D-32,0.01,2.01,              131P    137
5.77778983316176D-35,0.01,-0.01,-1.1613357564655D-32,-2.01,2.01,     131P    138
5.77778983316176D-35,-2.01,-0.01,-0.001,0.201,-0.001,0.201;          131P    139
128,1,1,1,1,0,0,1,0,0,-0.001,-0.001,0.201,0.201,-0.001,-0.001,       133P    140
0.201,0.201,1.,1.,1.,1.,2.01,0.01,2.,-0.01,0.01,2.,2.01,-2.01,       133P    141
2.,-0.01,-2.01,2.,-0.001,0.201,-0.001,0.201;                         133P    142
128,1,1,1,1,0,0,1,0,0,-0.101,-0.101,0.101,0.101,-0.101,-0.101,       135P    143
0.101,0.101,1.,1.,1.,1.,-0.01,-2.,2.01,-0.01,-2.,-0.01,2.01,-2.,     135P    144
2.01,2.01,-2.,-0.01,-0.101,0.101,-0.101,0.101;                       135P    145
128,1,1,1,1,0,0,1,0,0,-0.101,-0.101,0.101,0.101,0.274,0.274,         137P    146
0.312363636363636,0.312363636363636,1.,1.,1.,1.,2.01,0.,             137P    147
0.0100000000000011,-0.0100000000000021,0.,0.0100000000000011,        137P    148
2.01,0.,-0.373636363636363,-0.0100000000000021,0.,                   137P    149
-0.373636363636363,-0.101,0.101,0.274,0.312363636363636;             137P    150
128,1,1,1,1,0,0,1,0,0,-0.293617497767991,-0.293617497767991,         139P    151
0.293617497767991,0.293617497767991,-0.276,-0.276,0.276,0.276,       139P    152
1.,1.,1.,1.,3.93617497767991,0.,5.51,-1.93617497767991,0.,5.51,      139P    153
3.93617497767991,0.,-0.01,-1.93617497767991,0.,-0.01,                139P    154
-0.293617497767991,0.293617497767991,-0.276,0.276;                   139P    155
128,1,1,1,1,0,0,1,0,0,-0.001,-0.001,0.201,0.201,-0.001,-0.001,       141P    156
0.201,0.201,1.,1.,1.,1.,-0.01,0.01,3.5,2.01,0.01,3.5,-0.01,          141P    157
-2.01,3.5,2.01,-2.01,3.5,-0.001,0.201,-0.001,0.201;                  141P    158
128,1,1,1,1,0,0,1,0,0,-0.001,-0.001,0.201,0.201,-0.001,-0.001,       143P    159
0.201,0.201,1.,1.,1.,1.,0.,0.01,5.51,0.,0.01,3.49,0.,-2.01,5.51,     143P    160
0.,-2.01,3.49,-0.001,0.201,-0.001,0.201;                             143P    161
128,1,1,1,1,0,0,1,0,0,-0.001,-0.001,0.201,0.201,-0.001,-0.001,       145P    162
0.201,0.201,1.,1.,1.,1.,2.01,0.01,5.5,-0.01,0.01,5.5,2.01,-2.01,     145P    163
5.5,-0.01,-2.01,5.5,-0.001,0.201,-0.001,0.201;                       145P    164
128,1,1,1,1,0,0,1,0,0,-0.001,-0.001,0.201,0.201,-0.001,-0.001,       147P    165
0.201,0.201,1.,1.,1.,1.,2.,0.01,3.49,2.,0.01,5.51,2.,-2.01,3.49,     147P    166
2.,-2.01,5.51,-0.001,0.201,-0.001,0.201;                             147P    167
128,1,1,1,1,0,0,1,0,0,-0.101,-0.101,0.101,0.101,-0.101,-0.101,       149P    168
0.101,0.101,1.,1.,1.,1.,-0.01,-2.,5.51,-0.01,-2.,3.49,2.01,-2.,      149P    169
5.51,2.01,-2.,3.49,-0.101,0.101,-0.101,0.101;                        149P    170
128,1,1,1,1,0,0,1,0,0,-0.101,-0.101,0.101,0.101,                     151P    171
-0.312363636363636,-0.312363636363636,-0.274,-0.274,1.,1.,1.,1.,     151P    172
2.01,0.,5.87363636363636,-0.01,0.,5.87363636363636,2.01,0.,5.49,     151P    173
-0.01,0.,5.49,-0.101,0.101,-0.312363636363636,-0.274;                151P    174
128,1,8,1,2,0,1,0,0,1,0.,0.,0.341743063086704,0.341743063086704,     153P    175
-3.14159265358979,-3.14159265358979,-3.14159265358979,               153P    176
-1.5707963267949,-1.5707963267949,0.,0.,1.5707963267949,             153P    177
1.5707963267949,3.14159265358979,3.14159265358979,                   153P    178
3.14159265358979,1.,1.,0.707106781186548,0.707106781186548,1.,       153P    179
1.,0.707106781186548,0.707106781186548,1.,1.,0.707106781186548,      153P    180
0.707106781186548,1.,1.,0.707106781186548,0.707106781186548,1.,      153P    181
1.,-1.92617497767991,1.,2.75,-1.92617497767991,0.,2.75,              153P    182
-1.92617497767991,1.,5.67617497767991,-1.92617497767991,0.,          153P    183
5.67617497767991,1.,1.,5.67617497767991,1.,0.,5.67617497767991,      153P    184
3.92617497767991,1.,5.67617497767991,3.92617497767991,0.,            153P    185
5.67617497767991,3.92617497767991,1.,2.75,3.92617497767991,0.,       153P    186
2.75,3.92617497767991,1.,-0.176174977679905,3.92617497767991,0.,     153P    187
-0.176174977679905,1.,1.,-0.176174977679906,1.,0.,                   153P    188
-0.176174977679906,-1.92617497767991,1.,-0.176174977679905,          153P    189
-1.92617497767991,0.,-0.176174977679905,-1.92617497767991,1.,        153P    190
2.75,-1.92617497767991,0.,2.75,0.,0.341743063086704,                 153P    191
-3.14159265358979,3.14159265358979;                                  153P    192
128,1,1,1,1,0,0,1,0,0,-0.293617497767991,-0.293617497767991,         155P    193
0.293617497767991,0.293617497767991,-0.293617497767991,              155P    194
-0.293617497767991,0.293617497767991,0.293617497767991,1.,1.,1.,     155P    195
1.,-1.93617497767991,1.,5.68617497767991,3.93617497767991,1.,        155P    196
5.68617497767991,-1.93617497767991,1.,-0.186174977679906,            155P    197
3.93617497767991,1.,-0.186174977679906,-0.293617497767991,           155P    198
0.293617497767991,-0.293617497767991,0.293617497767991;              155P    199
502,18,2.,0.,2.,2.,0.,1.15555796663234D-32,2.,-2.,2.,2.,-2.,0.,      157P    200
0.,0.,0.,0.,-2.,0.,-1.15555796663234D-32,0.,2.,0.,-2.,2.,2.,0.,      157P    201
5.5,2.,0.,3.5,0.,0.,3.5,0.,0.,5.5,-1.92617497767991,0.,2.75,2.,      157P    202
-2.,3.5,0.,-2.,3.5,0.,-2.,5.5,2.,-2.,5.5,-1.92617497767991,1.,       157P    203
2.75;                                                                157P    204
504,31,65,157,1,157,2,67,157,1,157,3,69,157,4,157,3,71,157,2,        159P    205
157,4,73,157,2,157,5,75,157,6,157,4,77,157,5,157,6,79,157,5,157,     159P    206
7,81,157,8,157,6,83,157,7,157,8,85,157,7,157,1,87,157,3,157,8,       159P    207
89,157,2,157,5,91,157,9,157,2,93,157,9,157,10,95,157,10,157,11,      159P    208
97,157,11,157,12,99,157,13,157,12,101,157,5,157,13,103,157,10,       159P    209
157,14,105,157,15,157,14,107,157,11,157,15,109,157,16,157,15,        159P    210
111,157,12,157,16,113,157,12,157,9,115,157,17,157,16,117,157,9,      159P    211
157,17,119,157,14,157,17,121,157,12,157,9,123,157,18,157,18,125,     159P    212
157,18,157,13;                                                       159P    213
406,1,13HTriggerOffset;                                              161P    214
314,26.6666666666667,58.8235294117647,28.2352941176471,27HPowder     163P    215
 Coat - Rough (Green);                                               163P    216
314,62.7450980392157,62.7450980392157,62.7450980392157,13HSteel      165P    217
- Satin;                                                             165P    218
S      1G      3D    166P    218                                        T      1
